<?xml version="1.0" encoding="UTF-8"?>
<svg id="Layer_1" data-name="Layer 1" xmlns="http://www.w3.org/2000/svg" viewBox="0 0 267.53 390.89">
  <defs>
    <style>
      .cls-1 {
        fill: #fafdfd;
      }

      .cls-2 {
        fill: #63c9db;
      }

      .cls-3 {
        fill: #b0e0e9;
      }
    </style>
  </defs>
  <path class="cls-2" d="m131.32.1c-14.5,1.08-26.4,4.09-34.98,6.89-15.91,5.2-26.93,11.81-30.13,13.79-12.84,7.92-21.09,16.02-25.79,20.68-4.27,4.24-11.51,11.51-18.89,22.72-8.31,12.62-12.21,23.29-13.28,26.3-1.84,5.22-4.2,12.04-4.85,21.19-.35,4.92-.12,9.25,0,11.49.22,3.92.49,8.74,1.79,14.04.98,3.98,2.6,10.6,7.15,16.34,7.56,9.53,19.18,11.57,24.51,12.51,7.48,1.31,13.41.45,25.28-1.28,9.51-1.38,20.69-3.92,24.77-4.85,9.02-2.05,11-2.8,15.57-2.81,7.07-.01,8.91,1.77,17.87,3.06,1.79.26,9.85,1.36,19.66.51,10.35-.9,18.36-3.6,23.49-5.36,10.24-3.52,11.47-5.53,19.4-6.89,3.34-.57,8.83-1.47,15.57-.26,5.65,1.02,6.55,2.5,15.57,6.13,6.49,2.61,13.3,5.3,21.96,6.38,7.2.9,12.27,1.54,17.36-1.02,7.17-3.61,9.88-11.29,11.74-16.85,2.86-8.51,4.19-20.54-1.79-42.64-4.05-14.98-8.56-31.67-22.21-49.79-20.05-26.61-45.37-37.14-54.64-40.85C164.01.55,143.84-.38,131.32.1Z"/>
  <path class="cls-3" d="m157.62,17.46c-13.47-1.11-23.29,1.13-35.74,4.09-18.34,4.35-23.44,8.26-26.3,10.98-2.23,2.12-6.59,6.39-5.87,11.23.47,3.19,3.02,5.73,6.64,7.91,11.85,7.15,27.08,5.59,39.57,7.15,21.49,2.67,21.96,12.92,62.55,27.83,0,0,7.04,3.85,19.4,6.38,9.18,1.88,11.42.78,12.51-.26.95-.9,3.5-4.08-1.02-16.85-6.1-17.22-16.91-28.87-22.72-34.47-7.11-6.84-18.4-17.45-36-21.96-5.49-1.4-9.92-1.79-13.02-2.04Z"/>
  <path class="cls-1" d="m171.15,25.85c-7.14-2.05-12.58-3.09-21.7-2.04-7.68.88-2.45.58-16.6,2.04-1.13.12-3.82.39-4.09,1.53-.24,1.02,1.59,2.25,2.04,2.55,4.07,2.73,8.64,2.77,10.04,2.98,14.05,2.13,35.27,6.35,39.11,7.96,9.73,4.07,14.34,6.26,16.47,7.45,1.3.73,4.84,3.55,6.89,3.83.43.06,1.81-.29,2.3-1.28.49-.99-.08-2.44-1.53-4.34-7.07-9.27-21.7-16.09-21.7-16.09-5.1-2.38-7.65-3.57-11.23-4.6Z"/>
  <path class="cls-2" d="m39.15,160.95c3.06,8.64,7.15,23.01,6.64,38.81-.28,8.64-1.83,14.42-2.3,16.09-.9,3.21-2.67,8.47-7.4,16.6-5.57,9.57-10.78,15.43-13.79,19.15-1.94,2.4-13.38,16.8-18.89,35.74-6.37,21.9-2.22,40.98-.26,49.53,2.78,12.1,7.4,22.44,8.17,22.21.8-.23-3.49-11.48-4.34-25.79-1.28-21.43,5.79-38.77,9.19-45.96,7.27-15.34,18.56-28.15,28.85-39.83,4.72-5.35,8.51-9.2,12.51-16.34,6.09-10.88,7.74-20.65,8.94-28.09,1.52-9.51,2.83-25.06-1.02-44.43l-26.3,2.3Z"/>
  <path class="cls-2" d="m109.25,140.83c4.91,20.44,8.77,37.55,11.56,50.19,3.85,17.46,4.87,22.94,5.67,30.26,1.08,9.93,2.74,25.24-.27,43.03-1.48,8.72,1.26,27.79-13.81,44.2-15.47,16.83-39.55,20.03-45.12,19.86,3.07,2.25,8.24,3.99,14.92,4.66,15.52,1.55,31.83-8.02,38.52-14.37,3.26-3.1,25.91-22.1,28.48-57.03,1.05-14.29.95-25.6-1.07-52.91-.59-7.95-2.1-25.93-5.89-48.73-1.93-11.59-3.93-21.39-5.59-28.84-9.13,3.23-18.25,6.46-27.38,9.69Z"/>
  <path class="cls-2" d="m228.38,140.27c-3.06,8.64-7.15,23.01-6.64,38.81.28,8.64,1.83,14.42,2.3,16.09.9,3.21,2.67,8.47,7.4,16.6,5.57,9.57,10.78,15.43,13.79,19.15,1.94,2.4,13.38,16.8,18.89,35.74,6.37,21.9,2.22,40.98.26,49.53-2.78,12.1-7.4,22.44-8.17,22.21-.8-.23,3.49-11.48,4.34-25.79,1.28-21.43-5.79-38.77-9.19-45.96-7.27-15.34-18.56-28.15-28.85-39.83-4.72-5.35-8.51-9.2-12.51-16.34-6.09-10.88-7.74-20.65-8.94-28.09-1.52-9.51-2.83-25.06,1.02-44.43l26.3,2.3Z"/>
  <path class="cls-2" d="m73.52,152.02c-3.97,17.22-5.1,31.7-5.36,41.96-.33,13.21-.56,22.38,2.72,34.04,2.5,8.87,7.03,16.59,16,31.66,12.79,21.5,15.08,21.28,20.43,33.02,4.01,8.8,9.5,20.87,9.53,37.11.02,7.52.05,26.25-13.62,42.21-10.42,12.17-23.46,16.5-29.28,18.04,3.08.58,7.44,1.1,12.6.68,19.91-1.63,32.84-15.79,36.43-20.09,13.06-15.65,13.38-33.81,13.62-47.66.45-25.87-9-45.26-10.89-49.02-6.41-12.75-10.72-14.24-19.06-32-5.06-10.76-8.5-18.26-9.53-28.94-.96-9.92.66-17.41,3.74-31.66,2.47-11.43,5.34-20.65,7.49-26.89-11.6-.82-23.21-1.65-34.81-2.47Z"/>
  <path class="cls-2" d="m203.02,128.74c3.97,17.22,5.1,31.7,5.36,41.96.33,13.21.56,22.38-2.72,34.04-2.5,8.87-7.03,16.59-16,31.66-12.79,21.5-15.08,21.28-20.43,33.02-4.01,8.8-9.5,20.87-9.53,37.11-.02,7.52-.05,26.25,13.62,42.21,10.42,12.17,23.46,16.5,29.28,18.04-3.08.58-7.44,1.1-12.6.68-19.91-1.63-32.84-15.79-36.43-20.09-13.06-15.65-13.38-33.81-13.62-47.66-.45-25.87,9-45.26,10.89-49.02,6.41-12.75,10.72-14.24,19.06-32,5.06-10.76,8.5-18.26,9.53-28.94.96-9.92-.66-17.41-3.74-31.66-2.47-11.43-5.34-20.65-7.49-26.89,11.6-.82,23.21-1.65,34.81-2.47Z"/>
</svg>