<?xml version="1.0" encoding="UTF-8"?>
<svg id="Layer_1" data-name="Layer 1" xmlns="http://www.w3.org/2000/svg" viewBox="0 0 341.11 341.11">
  <defs>
    <style>
      .cls-1 {
        fill: #fafdfd;
      }

      .cls-2 {
        fill: #63c9db;
      }

      .cls-3 {
        fill: none;
        stroke: #b0e0e9;
        stroke-miterlimit: 10;
      }

      .cls-4 {
        fill: #b0e0e9;
      }
    </style>
  </defs>
  <g>
    <path class="cls-2" d="m93.9,28.38c-12.53,7.36-22.01,14.99-28.59,20.97-12.22,11.09-19.54,21.03-21.64,23.96-8.44,11.74-12.73,21.55-15.15,27.17-2.2,5.11-5.9,13.84-8.22,25.6-2.62,13.23-2.05,23-1.85,25.74.34,4.75.83,10.94,3.72,18.11,1.55,3.85,3.41,7.01,4.37,8.63,1.69,2.85,3.75,6.35,6.93,9.74,2.39,2.55,6.35,6.79,12.59,9.05,10.37,3.75,21.51.03,26.62-1.67,7.17-2.39,12.14-5.72,22.07-12.37,7.96-5.33,16.97-12.29,20.26-14.82,7.27-5.61,8.75-7.07,12.83-9.14,6.31-3.2,8.62-2.69,17.11-5.77,1.7-.62,9.31-3.42,17.74-8.49,8.89-5.34,15.01-10.99,18.92-14.63,7.8-7.27,8.13-9.33,14.7-13.94,2.76-1.94,7.32-5.09,13.8-7.22,5.43-1.79,6.8-1.08,16.23-2.43,6.78-.97,13.88-2.03,22.02-5.12,6.77-2.57,11.53-4.38,15.1-8.6,5.03-5.95,4.52-12.94,4.08-17.96-.68-7.68-4.07-17.32-17.8-31.22-9.3-9.42-19.67-19.92-38.74-27.37-28-10.93-54.59-7.41-64.28-6.02-23.46,3.38-41.82,11.79-52.8,17.8Z"/>
    <path class="cls-4" d="m123.36,19.5c-12.52,5.09-20.27,11.53-30.05,19.78-14.4,12.16-17.19,17.95-18.51,21.67-1.03,2.9-2.99,8.68-.17,12.68,1.86,2.64,5.28,3.75,9.5,4.07,13.8,1.03,26.68-7.23,38.54-11.49,20.38-7.31,25.43,1.61,68.38-3.41,0,0,8.02.26,20.2-3.06,9.04-2.46,10.54-4.46,11.05-5.88.44-1.23,1.28-5.22-8.52-14.58-13.21-12.61-28.12-18.13-35.84-20.5-9.44-2.9-24.3-7.27-42.04-3.34-5.53,1.22-9.66,2.88-12.54,4.06Z"/>
    <path class="cls-1" d="m139.22,20.87c-7.3,1.39-12.62,2.92-20.29,7.97-6.46,4.26-1.93,1.62-13.89,9.31-.95.61-3.23,2.07-2.95,3.21.25,1.02,2.43,1.29,2.98,1.36,4.86.6,8.96-1.43,10.31-1.88,13.49-4.44,34.33-10.25,38.49-10.55,10.52-.76,15.62-.89,18.06-.79,1.49.06,5.93.98,7.88.31.41-.14,1.48-1.08,1.47-2.18,0-1.11-1.17-2.14-3.33-3.18-10.5-5.08-26.63-4.56-26.63-4.56-5.62.18-8.43.27-12.1.97Z"/>
    <path class="cls-2" d="m72.83,190.91c5.5,4.09,13.75,11.35,18.36,21.59,2.52,5.6,2.99,9.96,3.1,11.23.22,2.44.33,6.57-1.29,13.85-1.91,8.58-4.67,14.64-6.17,18.35-.96,2.4-6.56,16.68-5.4,31.17,1.34,16.75,11.15,26.96,15.65,31.49,6.36,6.41,13.79,10.87,14.41,10.38.64-.51-6.79-5.7-12.14-14.37-8.01-13-7.26-27.17-6.53-33.26,1.57-13,7.54-26.21,12.98-38.25,2.5-5.52,4.65-9.67,5.93-16,1.95-9.64.29-16.58-1.03-21.82-1.69-6.71-5.51-17.15-15.15-27.68-7.58,4.44-15.15,8.88-22.73,13.33Z"/>
    <path class="cls-2" d="m128.93,146.52c10.93,10.73,19.86,19.82,26.4,26.58,9.03,9.32,11.7,12.33,14.75,16.61,4.15,5.81,10.54,14.75,13.54,27.38,1.48,6.19,10.03,17.04,1.84,34.23-8.41,17.64-28.87,30.54-33.89,32.95,3.46.04,8.64-1.19,14.81-3.78,14.34-6.03,25.83-19.45,29.76-26.49,1.91-3.43,16.04-25.7,7.13-48.98-3.64-9.52-7.36-16.64-17.91-33.03-3.07-4.77-10.19-15.48-20.87-28.21-5.43-6.47-10.36-11.77-14.23-15.75-7.11,6.17-14.22,12.33-21.32,18.5Z"/>
    <path class="cls-2" d="m235.05,92.39c.04,6.85.99,17.8,6.51,27.58,3.02,5.35,6.25,8.31,7.21,9.15,1.84,1.63,5.1,4.16,11.93,7.17,8.04,3.55,14.56,4.91,18.44,5.91,2.5.64,17.33,4.6,28.31,14.11,12.7,11,15.11,24.96,16.1,31.26,1.4,8.92.59,17.55-.17,17.76-.79.21-.57-8.84-4.39-18.29-5.73-14.15-17.59-21.95-22.93-24.96-11.4-6.44-25.58-9.45-38.51-12.2-5.93-1.26-10.54-1.98-16.4-4.7-8.92-4.14-13.53-9.58-16.97-13.76-4.41-5.33-10.55-14.6-13.33-28.6l24.2-10.42Z"/>
    <path class="cls-2" d="m100.63,169.74c1.98,12.7,5.6,22.38,8.66,29,3.94,8.52,6.67,14.43,13.34,20.33,5.07,4.49,11.59,7.33,24.42,12.83,18.3,7.85,20.28,6.67,28.81,11.7,6.39,3.77,15.16,8.93,20.4,19.2,2.42,4.76,8.46,16.6,1.38,32.89-5.4,12.41-15.64,21.04-20.34,24.64,2.93-1.02,6.99-2.66,11.46-5.25,17.24-10.02,24.24-24.83,26.07-29.17,6.64-15.81,1.1-27.46-3.12-36.34-7.89-16.59-22.54-24.61-25.43-26.13-9.81-5.18-14.13-4.18-27.27-11.66-7.96-4.53-13.43-7.73-17.78-14.03-4.04-5.85-4.99-11.32-6.8-21.74-1.46-8.35-1.85-15.49-1.94-20.42-10.62,4.72-21.23,9.43-31.85,14.15Z"/>
    <path class="cls-2" d="m208.72,96.53c9.06,9.11,14.71,17.78,18.23,24.16,4.53,8.22,7.68,13.92,8.48,22.79.61,6.75-.96,13.68-4.13,27.28-4.52,19.39-6.64,20.29-7.64,30.14-.75,7.38-1.79,17.51,3.39,27.81,2.4,4.77,8.36,16.65,25.68,20.59,13.19,3,26.22-.14,31.91-1.79-2.56,1.76-6.28,4.06-11.02,6.12-18.29,7.95-34.37,4.82-38.94,3.72-16.67-4.02-22.77-15.38-27.42-24.04-8.69-16.18-6.47-32.73-5.99-35.97,1.64-10.97,5-13.86,6.76-28.88,1.06-9.1,1.73-15.4-.77-22.63-2.32-6.72-6.17-10.73-13.49-18.36-5.87-6.12-11.39-10.67-15.3-13.65,10.09-5.76,20.18-11.52,30.27-17.28Z"/>
  </g>
  <rect class="cls-3" x=".5" y=".5" width="340.11" height="340.11"/>
</svg>